<svg xmlns="http://www.w3.org/2000/svg" viewBox="0 0 416.5 175.6"><style>.st0{fill-rule:evenodd;clip-rule:evenodd;fill:url(#SVGID_1_);} .st1{fill-rule:evenodd;clip-rule:evenodd;fill:url(#SVGID_2_);} .st2{fill-rule:evenodd;clip-rule:evenodd;fill:url(#SVGID_3_);} .st3{fill-rule:evenodd;clip-rule:evenodd;fill:url(#SVGID_4_);} .st4{fill-rule:evenodd;clip-rule:evenodd;fill:url(#SVGID_5_);} .st5{fill-rule:evenodd;clip-rule:evenodd;fill:url(#SVGID_6_);} .st6{fill-rule:evenodd;clip-rule:evenodd;fill:url(#SVGID_7_);} .st7{fill-rule:evenodd;clip-rule:evenodd;fill:url(#SVGID_8_);} .st8{fill-rule:evenodd;clip-rule:evenodd;fill:url(#SVGID_9_);} .st9{fill-rule:evenodd;clip-rule:evenodd;fill:url(#SVGID_10_);}</style><g id="图层_1"><linearGradient id="SVGID_1_" gradientUnits="userSpaceOnUse" x1="432.678" y1="17.938" x2="-23.322" y2="16.938"><stop offset="0" stop-color="#009BDE"/><stop offset=".586" stop-color="#34ABE3"/><stop offset="1" stop-color="#67B6E6"/></linearGradient><path class="st0" d="M11.5.6h34c.5 2.8 2.1 4.8 3 7 .3 2.7.7 5.3 1 8h1v3h1v2h1v3h1v2h1c.3 2.7.7 5.3 1 8h-34c-.5-3.1-2.2-5.7-3-8v-5h-1v-2h-1c-.3-2-.7-4-1-6h-1v-2h-1v-3h-1c.3-1 .7-2 1-3h-1c-.3-1.4-.7-2.7-1-4z"/><linearGradient id="SVGID_2_" gradientUnits="userSpaceOnUse" x1="432.663" y1="24.596" x2="-23.337" y2="23.596"><stop offset="0" stop-color="#009BDE"/><stop offset=".586" stop-color="#34ABE3"/><stop offset="1" stop-color="#67B6E6"/></linearGradient><path class="st1" d="M105.5.6v3h110c-.3 3.3-.7 6.7-1 10h-1v2h-1c-.7 4.7-1.3 9.3-2 14h-1c-.3 1.3-.7 2.7-1 4h-1c-.7 4-1.3 8-2 12h-36c.3-1 .7-2 1-3h1c1-4.3 2-8.7 3-13h-77c-.8 1.1.1.1-1 1 0 3.3-2.6 14.6-4 16-1.8 1.6-6.6 1-10 1h-24c.7-3 1.3-6 2-9h1c.7-4 1.3-8 2-12h1v-3h1v-2h1c1-5.3 2-10.7 3-16h2v-4c7.4-2.8 24.4-1.1 34-1z"/><linearGradient id="SVGID_3_" gradientUnits="userSpaceOnUse" x1="432.678" y1="17.745" x2="-23.322" y2="16.745"><stop offset="0" stop-color="#009BDE"/><stop offset=".586" stop-color="#34ABE3"/><stop offset="1" stop-color="#67B6E6"/></linearGradient><path class="st2" d="M230.5 1.6h34c-.3 10-.7 20-1 30-7.6 2.8-25.2 1.1-35 1 .7-10.4 1.3-20.7 2-31z"/><linearGradient id="SVGID_4_" gradientUnits="userSpaceOnUse" x1="432.519" y1="90.386" x2="-23.481" y2="89.386"><stop offset="0" stop-color="#009BDE"/><stop offset=".586" stop-color="#34ABE3"/><stop offset="1" stop-color="#67B6E6"/></linearGradient><path class="st3" d="M277.5 4.6h136c-2.3 47.3-4.7 94.7-7 142h1v-1h7c-.3 10-.7 20-1 30-11.9.3-37.5 2.7-40-6-2.4-2.4-2-7.1-2-12 .3-8.3.7-16.7 1-25 1.7-33.3 3.3-66.7 5-100h-102v-7h1v-19h1v-2z"/><linearGradient id="SVGID_5_" gradientUnits="userSpaceOnUse" x1="432.587" y1="59.278" x2="-23.413" y2="58.278"><stop offset="0" stop-color="#009BDE"/><stop offset=".586" stop-color="#34ABE3"/><stop offset="1" stop-color="#67B6E6"/></linearGradient><path class="st4" d="M158.5 35.6v2c-1 .3-2 .7-3 1-.7 1-1.3 2-2 3h-2c-1 1.3-2 2.7-3 4-3 2-3.9.6-6 4h29c2 3 2.8.9 4 5 1 .3 2 .7 3 1v1c1 .3 2 .7 3 1 .3.7.7 1.3 1 2h2c.7 1 1.3 2 2 3h2c.3.7.7 1.3 1 2h2c.7 1 1.3 2 2 3h2c.7 1 1.3 2 2 3 3.3 2.2 4.7.1 6 5 3 1.7 6 3.3 9 5v1h-47c-1.2-4.1-.6-1.3-3-3-.3-.7-.7-1.3-1-2h-2c-.7-1-1.3-2-2-3h-2c-.3-.7-.7-1.3-1-2h-2c-.7-1-1.3-2-2-3h-2c-.3-.7-.7-1.3-1-2h-2c-.7-1-1.3-2-2-3h-2c-.3-.7-.7-1.3-1-2-2.1-1.9-4.9-4.2-8-5-1.5 2.2-4.1 3.2-6 5-.3.7-.7 1.3-1 2h-3c-1 1.3-2 2.7-3 4h-2c-1.3 1.7-2.7 3.3-4 5h-2c-1.3 1.7-2.7 3.3-4 5h-2c-.3.7-.7 1.3-1 2h-2c-.3.7-.7 1.3-1 2h-47v-1h1c1.1-1.3 2.7-1.8 4-3 .3-.7.7-1.3 1-2h2c1.3-1.7 2.7-3.3 4-5 1.3-.3 2.7-.7 4-1 .3-.7.7-1.3 1-2h2c1-1.3 2-2.7 3-4h2c1.3-1.7 2.7-3.3 4-5h2c1-1.3 2-2.7 3-4h3c1-1.3 2-2.7 3-4h2c1-1.3 2-2.7 3-4h2c1.3-1.7 2.7-3.3 4-5h2c.7-1 1.3-2 2-3 1.3-.3 2.7-.7 4-1 .3-.7.7-1.3 1-2h45z"/><linearGradient id="SVGID_6_" gradientUnits="userSpaceOnUse" x1="432.584" y1="60.949" x2="-23.416" y2="59.949"><stop offset="0" stop-color="#009BDE"/><stop offset=".586" stop-color="#34ABE3"/><stop offset="1" stop-color="#67B6E6"/></linearGradient><path class="st5" d="M54.5 38.6c-.3 1.7-.7 3.3-1 5h-1v2c-.7.3-1.3.7-2 1v3h-1v2h-1c-.3 2-.7 4-1 6h-1v2h-1v2h-1c-.7 2-1.3 4-2 6h-1v3h-1c-.8 1.9-3.1 10.5-4 11h-34c.3-1.7.7-3.3 1-5h1v-3c.7-.3 1.3-.7 2-1v-3h1c.3-1.3.7-2.7 1-4h1c.3-1.7.7-3.3 1-5h1v-3c.7-.3 1.3-.7 2-1v-3h1c.3-1.3.7-2.7 1-4h1v-3c1.3-2.7 2.7-5.3 4-8h34z"/><linearGradient id="SVGID_7_" gradientUnits="userSpaceOnUse" x1="432.482" y1="107.313" x2="-23.518" y2="106.313"><stop offset="0" stop-color="#009BDE"/><stop offset=".586" stop-color="#34ABE3"/><stop offset="1" stop-color="#67B6E6"/></linearGradient><path class="st6" d="M305.5 38.6h33c-.7 13.3-1.3 26.7-2 40h27c1.4 3.8 1 10.7 1 16-1.9 2.1-1.1 9.2-1 13h-28c-1.3 22.7-2.7 45.3-4 68h-33c1-22.7 2-45.3 3-68h-27c.3-9.7.7-19.3 1-29h28c.7-13.4 1.3-26.7 2-40z"/><linearGradient id="SVGID_8_" gradientUnits="userSpaceOnUse" x1="432.475" y1="110.448" x2="-23.525" y2="109.448"><stop offset="0" stop-color="#009BDE"/><stop offset=".586" stop-color="#34ABE3"/><stop offset="1" stop-color="#67B6E6"/></linearGradient><path class="st7" d="M216.5 44.6h46c.2 35.7-3.8 66.9-4 102 5.3-.1 12.2-.4 16 1-1 9.3-2 18.7-3 28-13 .1-27.6.1-39-1-2-3-.9-.5-3-2-.3-.7-.7-1.3-1-2-1-.7-2-1.3-3-2-.7-2-1.3-4-2-6h-1c1.7-29.7 3.3-59.3 5-89-2.9-1.1-7.7-1-12-1 .3-9.4.7-18.7 1-28z"/><linearGradient id="SVGID_9_" gradientUnits="userSpaceOnUse" x1="432.47" y1="112.72" x2="-23.53" y2="111.72"><stop offset="0" stop-color="#009BDE"/><stop offset=".586" stop-color="#34ABE3"/><stop offset="1" stop-color="#67B6E6"/></linearGradient><path class="st8" d="M13.5 84.6h172c6.2 0 14.4-.7 19 1-1.9 5.2.8 13.7-1 20h-1c-.3 11.3-.7 22.7-1 34h-35v-7h1c1.7-6-.8-14.1 1-19h-122c-1.6 4.3-1 12.1-1 18h-1v8h-34c-.1-19.2 2.4-37 3-55z"/><linearGradient id="SVGID_10_" gradientUnits="userSpaceOnUse" x1="432.396" y1="146.358" x2="-23.604" y2="145.358"><stop offset="0" stop-color="#009BDE"/><stop offset=".586" stop-color="#34ABE3"/><stop offset="1" stop-color="#67B6E6"/></linearGradient><path class="st9" d="M159.5 144.6v2c1-.3 2-.7 3-1v2c.7-.3 1.3-.7 2-1 .3.7.7 1.3 1 2h2v1c.7-.3 1.3-.7 2-1 .9.4.4 1.9 2 2 .5-.4-.3-1.6 1-1 .3.7.7 1.3 1 2 .7-.3 1.3-.7 2-1 .3.7.7 1.3 1 2h1v-1h22c.8 2.2 1 5.4 1 9-2 2.2-1.1 10.1-1 14h-51v-1h-2v-1h-3v-1h-2v-1h-3v-1h-3v-1c-1.3-.3-2.7-.7-4-1v-1h-2v-1h-3v-1h-2v-1c-1.7-.3-3.3-.7-5-1v-1h-3v-1h-2v-1c-2.9-1.3-4.9-1.1-8-2v-1c-3.7 1-7.3 2-11 3v1h-2v1h-3v1h-3v1h-3v1h-3v1h-2v1h-4v1c-2 .3-4 .7-6 1v1h-2v1h-3v1h-3v1h-3v1h-3v1h-47c.3-7.7.7-15.3 1-23h21c2.1 2.4.3-.9 3-1v1h1v-1c1.7-1 .9-1 2 0h1c.3-.7.7-1.3 1-2 .7.3 1.3.7 2 1v-1h2c.9-.5.3-1.9 2-2v1c1-.7 2-1.3 3-2v1h1c.3-.7.7-1.3 1-2 .7.3 1.3.7 2 1 .3-.7.7-1.3 1-2h2v-1h3v-1h3v-1h3v-1h3v-1c3.3-1 6.7-2 10-3v1c1.7-1 3.3-2 5-3v1c.8-.3 2-2 2-2 .7.3 1.3.7 2 1 .3-.7.7-1.3 1-2 .7.3 1.3.7 2 1v-5h1c1.7-3-1-7.7 1-10 1.7-1.5 5.8-1 9-1h24c.8 1.1-.1.1 1 1-1.5 3.8-1.4 12.2 0 16h1v-1c1.7.2 1.1 1.4 2 2 .7-.3 1.3-.7 2-1v1h2v1h3v1h3v1h3v1h3v1h2v1h3c3.4 1.4 6.5 3.4 11 4z"/></g></svg>