<?xml version="1.0" encoding="utf-8"?>
<!-- Generator: Adobe Illustrator 19.2.1, SVG Export Plug-In . SVG Version: 6.00 Build 0)  -->
<svg version="1.1" id="图层_1" xmlns="http://www.w3.org/2000/svg" xmlns:xlink="http://www.w3.org/1999/xlink" x="0px" y="0px"
	 viewBox="0 0 3063.7 473.9" style="enable-background:new 0 0 3063.7 473.9;" xml:space="preserve">
<style type="text/css">
	.st0{fill:#909798;}
	.st1{fill:none;stroke:#909798;stroke-width:18;stroke-miterlimit:10;}
</style>
<path class="st0" d="M1601.7,42.8c8.7,0,17.3,0,26,0c0,39.7,0,79.3,0,119c0,12.1-1.9,28.7,1,39c0,4.3,0,8.7,0,13c0.3,0,0.7,0,1,0
	c0,3,0,6,0,9c0.3,0,0.7,0,1,0c0,2,0,4,0,6c0.3,0,0.7,0,1,0c0,2,0,4,0,6c0.3,0,0.7,0,1,0c0,1.7,0,3.3,0,5c0.3,0,0.7,0,1,0
	c0,1.3,0,2.7,0,4c0.3,0,0.7,0,1,0c0,1.7,0,3.3,0,5c0.3,0,0.7,0,1,0c0.3,2.3,0.7,4.7,1,7c0.3,0,0.7,0,1,0c0,1,0,2,0,3
	c0.3,0,0.7,0,1,0c0.7,3.3,1.3,6.7,2,10c0.3,0,0.7,0,1,0c0,0.7,0,1.3,0,2c0.3,0,0.7,0,1,0c0.3,2,0.7,4,1,6c0.3,0,0.7,0,1,0
	c0.3,1.3,0.7,2.7,1,4c0.3,0,0.7,0,1,0c0,1,0,2,0,3c0.3,0,0.7,0,1,0c0.7,2,1.3,4,2,6c0.3,0,0.7,0,1,0c0,0.7,0,1.3,0,2
	c0.3,0,0.7,0,1,0c0,0.7,0,1.3,0,2c0.3,0,0.7,0,1,0c0,0.7,0,1.3,0,2c0.3,0,0.7,0,1,0c0,0.7,0,1.3,0,2c0.3,0,0.7,0,1,0
	c0,0.7,0,1.3,0,2c0.3,0,0.7,0,1,0c0,0.7,0,1.3,0,2c0.3,0,0.7,0,1,0c0,0.7,0,1.3,0,2c0.3,0,0.7,0,1,0c0,0.7,0,1.3,0,2
	c0.7,0.3,1.3,0.7,2,1c0.3,1.3,0.7,2.7,1,4c0.7,0.3,1.3,0.7,2,1c0.3,1.3,0.7,2.7,1,4c0.7,0.3,1.3,0.7,2,1c0,0.7,0,1.3,0,2
	c0.3,0,0.7,0,1,0c0.3,1,0.7,2,1,3c0.7,0.3,1.3,0.7,2,1c0,0.7,0,1.3,0,2c1,0.7,2,1.3,3,2c0,0.7,0,1.3,0,2c0.7,0.3,1.3,0.7,2,1
	c0,0.7,0,1.3,0,2c1.3,1,2.7,2,4,3c0,0.7,0,1.3,0,2c1.3,1,2.7,2,4,3c0,0.7,0,1.3,0,2c2,1.7,4,3.3,6,5c0,0.7,0,1.3,0,2
	c4.3,4,8.7,8,13,12c3.3,3.7,6.7,7.3,10,11c0.7,0,1.3,0,2,0c1.7,2,3.3,4,5,6c0.7,0,1.3,0,2,0c1.3,1.7,2.7,3.3,4,5c0.7,0,1.3,0,2,0
	c1,1.3,2,2.7,3,4c0.7,0,1.3,0,2,0c0.7,1,1.3,2,2,3c0.7,0,1.3,0,2,0c0.7,1,1.3,2,2,3c0.7,0,1.3,0,2,0c0.3,0.7,0.7,1.3,1,2
	c0.7,0,1.3,0,2,0c0.7,1,1.3,2,2,3c3,1.7,6,3.3,9,5c0,6.3,0,12.7,0,19c-0.3,0-0.7,0-1,0c0-0.3,0-0.7,0-1c-0.7,0-1.3,0-2,0
	c-0.3-0.7-0.7-1.3-1-2c-0.7,0-1.3,0-2,0c0-0.3,0-0.7,0-1c-0.7,0-1.3,0-2,0c-0.3-0.7-0.7-1.3-1-2c-0.7,0-1.3,0-2,0c0-0.3,0-0.7,0-1
	c-0.7,0-1.3,0-2,0c0-0.3,0-0.7,0-1c-1-0.3-2-0.7-3-1c-0.3-0.7-0.7-1.3-1-2c-1.3-0.3-2.7-0.7-4-1c0-0.3,0-0.7,0-1c-1-0.3-2-0.7-3-1
	c-0.3-0.7-0.7-1.3-1-2c-0.7,0-1.3,0-2,0c0-0.3,0-0.7,0-1c-1-0.3-2-0.7-3-1c-0.3-0.7-0.7-1.3-1-2c-0.7,0-1.3,0-2,0c-0.7-1-1.3-2-2-3
	c-0.7,0-1.3,0-2,0c-0.3-0.7-0.7-1.3-1-2c-0.7,0-1.3,0-2,0c-0.3-0.7-0.7-1.3-1-2c-1-0.3-2-0.7-3-1c-0.7-1-1.3-2-2-3c-0.7,0-1.3,0-2,0
	c-0.3-0.7-0.7-1.3-1-2c-1-0.3-2-0.7-3-1c-1-1.3-2-2.7-3-4c-0.7,0-1.3,0-2,0c-1.3-1.7-2.7-3.3-4-5c-0.7,0-1.3,0-2,0c-1.7-2-3.3-4-5-6
	c-0.7,0-1.3,0-2,0c-5.3-5.7-10.7-11.3-16-17c-3.3-3-6.7-6-10-9c0-0.7,0-1.3,0-2c-2-1.7-4-3.3-6-5c0-0.7,0-1.3,0-2c-1.3-1-2.7-2-4-3
	c0-0.7,0-1.3,0-2c-1-0.7-2-1.3-3-2c0-0.7,0-1.3,0-2c-1-0.7-2-1.3-3-2c0-0.7,0-1.3,0-2c-0.7-0.3-1.3-0.7-2-1c-0.3-1-0.7-2-1-3
	c-0.3,0-0.7,0-1,0c0-0.7,0-1.3,0-2c-0.7-0.3-1.3-0.7-2-1c0-0.7,0-1.3,0-2c-0.7-0.3-1.3-0.7-2-1c-0.3-1-0.7-2-1-3c-0.3,0-0.7,0-1,0
	c-0.3-1.3-0.7-2.7-1-4c-0.7-0.3-1.3-0.7-2-1c0-0.7,0-1.3,0-2c-0.3,0-0.7,0-1,0c0-0.7,0-1.3,0-2c-0.3,0-0.7,0-1,0c0-0.7,0-1.3,0-2
	c-0.3,0-0.7,0-1,0c0-0.7,0-1.3,0-2c-0.7-0.3-1.3-0.7-2-1c0-0.7,0-1.3,0-2c-0.3,0-0.7,0-1,0c-0.3-1.3-0.7-2.7-1-4c-0.3,0-0.7,0-1,0
	c0-1,0-2,0-3c-0.3,0-0.7,0-1,0c-1.3-3.7-2.7-7.3-4-11c-0.7,0-1.3,0-2,0c-0.4,4.2-1.8,4.4-3,7c-1,3-2,6-3,9c-0.3,0-0.7,0-1,0
	c0,0.7,0,1.3,0,2c-0.3,0-0.7,0-1,0c0,0.7,0,1.3,0,2c-0.3,0-0.7,0-1,0c0,0.7,0,1.3,0,2c-0.3,0-0.7,0-1,0c0,0.7,0,1.3,0,2
	c-0.3,0-0.7,0-1,0c0,0.7,0,1.3,0,2c-0.3,0-0.7,0-1,0c0,0.7,0,1.3,0,2c-0.3,0-0.7,0-1,0c0,0.7,0,1.3,0,2c-0.7,0.3-1.3,0.7-2,1
	c-0.3,1.3-0.7,2.7-1,4c-0.7,0.3-1.3,0.7-2,1c0,0.7,0,1.3,0,2c-0.3,0-0.7,0-1,0c0,0.7,0,1.3,0,2c-0.3,0-0.7,0-1,0c-0.3,1-0.7,2-1,3
	c-0.7,0.3-1.3,0.7-2,1c-0.3,1.3-0.7,2.7-1,4c-1,0.7-2,1.3-3,2c0,0.7,0,1.3,0,2c-0.7,0.3-1.3,0.7-2,1c0,0.7,0,1.3,0,2
	c-1,0.7-2,1.3-3,2c0,0.7,0,1.3,0,2c-1,0.7-2,1.3-3,2c0,0.7,0,1.3,0,2c-1.3,1-2.7,2-4,3c0,0.7,0,1.3,0,2c-1.7,1.3-3.3,2.7-5,4
	c0,0.7,0,1.3,0,2c-3.7,3.3-7.3,6.7-11,10c-4.7,5-9.3,10-14,15c-0.7,0-1.3,0-2,0c-1.7,2-3.3,4-5,6c-0.7,0-1.3,0-2,0c-1,1.3-2,2.7-3,4
	c-0.7,0-1.3,0-2,0c-1,1.3-2,2.7-3,4c-1,0.3-2,0.7-3,1c-0.3,0.7-0.7,1.3-1,2c-0.7,0-1.3,0-2,0c-0.3,0.7-0.7,1.3-1,2c-0.7,0-1.3,0-2,0
	c-0.7,1-1.3,2-2,3c-0.7,0-1.3,0-2,0c-0.3,0.7-0.7,1.3-1,2c-1,0.3-2,0.7-3,1c0,0.3,0,0.7,0,1c-0.7,0-1.3,0-2,0c-0.3,0.7-0.7,1.3-1,2
	c-1,0.3-2,0.7-3,1c0,0.3,0,0.7,0,1c-1.3,0.3-2.7,0.7-4,1c-0.3,0.7-0.7,1.3-1,2c-1.3,0.3-2.7,0.7-4,1c-0.3,0.7-0.7,1.3-1,2
	c-1.3,0.3-2.7,0.7-4,1c-0.3,0.7-0.7,1.3-1,2c-1.3,0.3-2.7,0.7-4,1c-2.7,1.4-5.1,3.6-8,5c0-6.3,0-12.7,0-19c3-1.7,6-3.3,9-5
	c0.3-0.7,0.7-1.3,1-2c0.7,0,1.3,0,2,0c0.7-1,1.3-2,2-3c0.7,0,1.3,0,2,0c0.3-0.7,0.7-1.3,1-2c0.7,0,1.3,0,2,0c0.3-0.7,0.7-1.3,1-2
	c1-0.3,2-0.7,3-1c0.7-1,1.3-2,2-3c0.7,0,1.3,0,2,0c1-1.3,2-2.7,3-4c0.7,0,1.3,0,2,0c1.3-1.7,2.7-3.3,4-5c0.7,0,1.3,0,2,0
	c1.7-2,3.3-4,5-6c0.7,0,1.3,0,2,0c3-3.3,6-6.7,9-10c3.3-3,6.7-6,10-9c0-0.7,0-1.3,0-2c2.3-2,4.7-4,7-6c0-0.7,0-1.3,0-2
	c1.3-1,2.7-2,4-3c0-0.7,0-1.3,0-2c1-0.7,2-1.3,3-2c0.3-1,0.7-2,1-3c0.7-0.3,1.3-0.7,2-1c0-0.7,0-1.3,0-2c0.7-0.3,1.3-0.7,2-1
	c0-0.7,0-1.3,0-2c1-0.7,2-1.3,3-2c0.3-1.3,0.7-2.7,1-4c0.7-0.3,1.3-0.7,2-1c0.3-1,0.7-2,1-3c0.3,0,0.7,0,1,0c0.3-1.3,0.7-2.7,1-4
	c0.7-0.3,1.3-0.7,2-1c0-0.7,0-1.3,0-2c0.3,0,0.7,0,1,0c0-0.7,0-1.3,0-2c0.3,0,0.7,0,1,0c0-0.7,0-1.3,0-2c0.3,0,0.7,0,1,0
	c0-0.7,0-1.3,0-2c0.7-0.3,1.3-0.7,2-1c1-3,2-6,3-9c0.3,0,0.7,0,1,0c0-0.7,0-1.3,0-2c0.3,0,0.7,0,1,0c0.3-1.3,0.7-2.7,1-4
	c0.3,0,0.7,0,1,0c0-1,0-2,0-3c0.3,0,0.7,0,1,0c0-0.7,0-1.3,0-2c0.3,0,0.7,0,1,0c0-1,0-2,0-3c0.3,0,0.7,0,1,0c0-0.7,0-1.3,0-2
	c0.3,0,0.7,0,1,0c3.3-12,6.7-24,10-36c0.3-4,0.7-8,1-12c4.6-15.9,3-40,3-60C1601.7,126.2,1601.7,84.5,1601.7,42.8z"/>
<path class="st0" d="M2058.7,42.8c0,50.3,0,100.7,0,151c37,0,74,0,111,0c0,6,0,12,0,18c-37,0-74,0-111,0c0,26,0,52,0,78
	c42,0,84,0,126,0c0,6,0,12,0,18c-42,0-84,0-126,0c0,38.7,0,77.3,0,116c-8.3,0-16.7,0-25,0c0-38.7,0-77.3,0-116c-41.7,0-83.3,0-125,0
	c0-6,0-12,0-18c41.7,0,83.3,0,125,0c0-26,0-52,0-78c-36.7,0-73.3,0-110,0c0-6,0-12,0-18c36.7,0,73.3,0,110,0c0-50,0-100,0-150
	C2039.8,41.6,2051,42.8,2058.7,42.8z"/>
<path class="st0" d="M2428.7,42.8c9,0,18,0,27,0c0,17.7,0,35.3,0,53c31.3,0,62.7,0,94,0c0,70.7,0,141.3,0,212c0,31.2,4.2,71.4-9,90
	c-1.3,1-2.7,2-4,3c-1.3,1.7-2.7,3.3-4,5c-14.3,10.1-36.4,9.1-61,9c0-5.7,0-11.3,0-17c12.1,0.1,31.5,1.6,39-3c0.3-0.7,0.7-1.3,1-2
	c0.7,0,1.3,0,2,0c1-1.3,2-2.7,3-4c1-0.7,2-1.3,3-2c0-0.7,0-1.3,0-2c0.3,0,0.7,0,1,0c0.3-1.3,0.7-2.7,1-4c0.3,0,0.7,0,1,0
	c0-1.3,0-2.7,0-4c0.3,0,0.7,0,1,0c0-2,0-4,0-6c1.6-5.5,1-14.9,1-22c0-13.3,0-26.7,0-40c0-65,0-130,0-195c-23.7,0-47.3,0-71,0
	c0.2,11.8,1.8,30.3-1,40c0,8,0,16,0,24c-0.3,0-0.7,0-1,0c0,5,0,10,0,15c-0.3,0-0.7,0-1,0c0,4.3,0,8.7,0,13c-0.3,0-0.7,0-1,0
	c0,3.3,0,6.7,0,10c-0.3,0-0.7,0-1,0c-1,10.3-2,20.7-3,31c-1.9,6.4-3.1,14.8-5,21c0,1.7,0,3.3,0,5c-0.3,0-0.7,0-1,0
	c-0.7,4-1.3,8-2,12c-0.3,0-0.7,0-1,0c-0.3,2.3-0.7,4.7-1,7c-0.3,0-0.7,0-1,0c0,1,0,2,0,3c-0.3,0-0.7,0-1,0c0,1,0,2,0,3
	c-0.3,0-0.7,0-1,0c0,1,0,2,0,3c-0.3,0-0.7,0-1,0c0,1,0,2,0,3c-0.3,0-0.7,0-1,0c0,1,0,2,0,3c-0.3,0-0.7,0-1,0c0,1,0,2,0,3
	c-0.3,0-0.7,0-1,0c0,1,0,2,0,3c-0.3,0-0.7,0-1,0c-0.3,1.7-0.7,3.3-1,5c-0.3,0-0.7,0-1,0c0,0.7,0,1.3,0,2c-0.3,0-0.7,0-1,0
	c0,1,0,2,0,3c-0.3,0-0.7,0-1,0c-0.7,2-1.3,4-2,6c-0.3,0-0.7,0-1,0c0,0.7,0,1.3,0,2c-0.3,0-0.7,0-1,0c0,0.7,0,1.3,0,2
	c-0.3,0-0.7,0-1,0c0,0.7,0,1.3,0,2c-0.3,0-0.7,0-1,0c0,0.7,0,1.3,0,2c-0.3,0-0.7,0-1,0c0,0.7,0,1.3,0,2c-0.3,0-0.7,0-1,0
	c0,0.7,0,1.3,0,2c-0.3,0-0.7,0-1,0c0,0.7,0,1.3,0,2c-0.7,0.3-1.3,0.7-2,1c-0.3,1.3-0.7,2.7-1,4c-0.7,0.3-1.3,0.7-2,1
	c-0.3,1.3-0.7,2.7-1,4c-0.3,0-0.7,0-1,0c-0.3,1-0.7,2-1,3c-0.7,0.3-1.3,0.7-2,1c0,0.7,0,1.3,0,2c-1,0.7-2,1.3-3,2c0,0.7,0,1.3,0,2
	c-0.7,0.3-1.3,0.7-2,1c0,0.7,0,1.3,0,2c-0.7,0.3-1.3,0.7-2,1c-0.3,1-0.7,2-1,3c-1,0.7-2,1.3-3,2c0,0.7,0,1.3,0,2
	c-0.7,0.3-1.3,0.7-2,1c-0.7,1-1.3,2-2,3c-0.3,0-0.7,0-1,0c0,0.7,0,1.3,0,2c-1.7,1.3-3.3,2.7-5,4c0,0.7,0,1.3,0,2c-4,3.7-8,7.3-12,11
	c0,0.7,0,1.3,0,2c-2.3,2-4.7,4-7,6c-0.3,0.7-0.7,1.3-1,2c-1,0.3-2,0.7-3,1c-3.3,3.7-6.7,7.3-10,11c-0.7,0-1.3,0-2,0c0,0.3,0,0.7,0,1
	c-2,1.7-4,3.3-6,5c0-7.3,0-14.7,0-22c0.3,0,0.7,0,1,0c0.9-3.6,3.9-5.5,6-8c0.3,0,0.7,0,1,0c0-0.7,0-1.3,0-2c1.3-1,2.7-2,4-3
	c0-0.7,0-1.3,0-2c1.7-1.3,3.3-2.7,5-4c0-0.7,0-1.3,0-2c1-0.7,2-1.3,3-2c0-0.7,0-1.3,0-2c1-0.7,2-1.3,3-2c0-0.7,0-1.3,0-2
	c1-0.7,2-1.3,3-2c0-0.7,0-1.3,0-2c0.7-0.3,1.3-0.7,2-1c0-0.7,0-1.3,0-2c1-0.7,2-1.3,3-2c0-0.7,0-1.3,0-2c0.7-0.3,1.3-0.7,2-1
	c0.3-1,0.7-2,1-3c0.3,0,0.7,0,1,0c0-0.7,0-1.3,0-2c0.7-0.3,1.3-0.7,2-1c0.3-1.3,0.7-2.7,1-4c0.3,0,0.7,0,1,0c0.3-1,0.7-2,1-3
	c0.7-0.3,1.3-0.7,2-1c0.3-1.3,0.7-2.7,1-4c0.7-0.3,1.3-0.7,2-1c0-0.7,0-1.3,0-2c0.3,0,0.7,0,1,0c0-0.7,0-1.3,0-2c0.3,0,0.7,0,1,0
	c0-0.7,0-1.3,0-2c0.3,0,0.7,0,1,0c0-0.7,0-1.3,0-2c0.3,0,0.7,0,1,0c0.3-1.3,0.7-2.7,1-4c0.7-0.3,1.3-0.7,2-1c0-0.7,0-1.3,0-2
	c0.3,0,0.7,0,1,0c26.3-56.5,32.7-131.3,33-214c-24.3,0-48.7,0-73,0c0-6,0-12,0-18c24.3,0,48.7,0,73,0
	C2428.7,78.2,2428.7,60.5,2428.7,42.8z"/>
<path class="st0" d="M1064.7,49.8c8.3,0,16.7,0,25,0c0,110.7,0,221.3,0,332c25.7,0,51.3,0,77,0c0-110.7,0-221.3,0-332
	c8.7,0,17.3,0,26,0c0,110.7,0,221.3,0,332c43.3,0,86.7,0,130,0c0,5,0,10,0,15c-128.3,0-256.7,0-385,0c0-5,0-10,0-15
	c42.3,0,84.7,0,127,0C1064.7,271.2,1064.7,160.5,1064.7,49.8z"/>
<path class="st0" d="M2681.7,62.8c110.3,0,220.7,0,331,0c0,80.7,0,161.3,0,242c0,18.7,0,37.3,0,56c0,17.2,0.1,31-7,41
	c-1.3,1-2.7,2-4,3c-1,1.3-2,2.7-3,4c-15.2,10.3-43.5,8.1-69,8c0-5.7,0-11.3,0-17c10.4,0.1,34.3,1.9,42-1c0-0.3,0-0.7,0-1
	c2-0.7,4-1.3,6-2c1-1.3,2-2.7,3-4c1-0.7,2-1.3,3-2c4.3-6.5,4-18.2,4-29c0-19,0-38,0-57c0-73.7,0-147.3,0-221c-93.7,0-187.3,0-281,0
	c0,112,0,224,0,336c-8,0-16,0-24,0c-2.8-7.6-1-24.3-1-34c0-24.3,0-48.7,0-73C2681.7,228.8,2681.7,145.8,2681.7,62.8z"/>
<path class="st0" d="M604.7,103.8c8.7,0,17.3,0,26,0c0.7,10.2,2.9,21.2,6,29c0,1,0,2,0,3c0.3,0,0.7,0,1,0c0,1,0,2,0,3
	c0.3,0,0.7,0,1,0c0,0.7,0,1.3,0,2c0.3,0,0.7,0,1,0c0,1,0,2,0,3c0.3,0,0.7,0,1,0c0.3,1.3,0.7,2.7,1,4c0.3,0,0.7,0,1,0c0,1,0,2,0,3
	c0.3,0,0.7,0,1,0c0.3,1.3,0.7,2.7,1,4c0.7,0.3,1.3,0.7,2,1c0.3,1,0.7,2,1,3c35,0,70,0,105,0c2-3.3,4-6.7,6-10c0.3-1.3,0.7-2.7,1-4
	c0.3,0,0.7,0,1,0c0-0.7,0-1.3,0-2c0.3,0,0.7,0,1,0c0-1,0-2,0-3c0.3,0,0.7,0,1,0c0-0.7,0-1.3,0-2c0.3,0,0.7,0,1,0c0.7-3,1.3-6,2-9
	c0.3,0,0.7,0,1,0c0-1.3,0-2.7,0-4c0.3,0,0.7,0,1,0c0-1.3,0-2.7,0-4c0.3,0,0.7,0,1,0c0-1.7,0-3.3,0-5c0.3,0,0.7,0,1,0
	c0-1.7,0-3.3,0-5c0.3,0,0.7,0,1,0c0-2,0-4,0-6c0.3,0,0.7,0,1,0c2.3-2.1,19.1-1.1,24-1c0,6.8-2.3,12.2-4,17c0,1.3,0,2.7,0,4
	c-0.3,0-0.7,0-1,0c0,1,0,2,0,3c-0.3,0-0.7,0-1,0c0,1,0,2,0,3c-0.3,0-0.7,0-1,0c0,1,0,2,0,3c-0.3,0-0.7,0-1,0c0,1,0,2,0,3
	c-3.7,7.3-7.3,14.7-11,22c27.3,0,54.7,0,82,0c0,56.3,0,112.7,0,169c0,12.7,0,25.3,0,38c-0.3,6.7-0.7,13.3-1,20c-0.3,0-0.7,0-1,0
	c-0.3,2-0.7,4-1,6c-0.3,0-0.7,0-1,0c-0.3,1.3-0.7,2.7-1,4c-0.3,0-0.7,0-1,0c0,0.7,0,1.3,0,2c-1.3,1-2.7,2-4,3c0,0.7,0,1.3,0,2
	c-1,0.3-2,0.7-3,1c-1,1.3-2,2.7-3,4c-0.7,0-1.3,0-2,0c0,0.3,0,0.7,0,1c-1.3,0.3-2.7,0.7-4,1c0,0.3,0,0.7,0,1
	c-13.5,5.9-37.9,4.1-57,4c0-5.7,0-11.3,0-17c11.7,0.1,30.6,1.8,39-2c2.4-1.1,5.2-4.2,7-6c1-0.7,2-1.3,3-2c3.3-5,3-12.6,3-21
	c0-12.7,0-25.3,0-38c0-50.7,0-101.3,0-152c-89,0-178,0-267,0c0,82.3,0,164.7,0,247c-8.3,0-16.7,0-25,0c0-88.3,0-176.7,0-265
	c28,0,56,0,84,0c0-0.3,0-0.7,0-1c-3.1-2.8-3.9-8.1-6-12c-0.3,0-0.7,0-1,0c-0.3-1.3-0.7-2.7-1-4c-0.3,0-0.7,0-1,0
	c-0.3-1.7-0.7-3.3-1-5c-0.3,0-0.7,0-1,0c0-1,0-2,0-3c-0.3,0-0.7,0-1,0c0-1,0-2,0-3c-0.3,0-0.7,0-1,0c0-1,0-2,0-3c-0.3,0-0.7,0-1,0
	c0-1,0-2,0-3c-0.3,0-0.7,0-1,0c0-1.3,0-2.7,0-4C607,115.9,605,110.7,604.7,103.8z"/>
<circle class="st0" cx="128.2" cy="152.3" r="20.5"/>
<circle class="st0" cx="326.2" cy="152.3" r="20.5"/>
<path class="st1" d="M741.7,426.8"/>
<path class="st1" d="M509.7,426.8"/>
</svg>
