<?xml version="1.0" encoding="utf-8"?>
<!-- Generator: Adobe Illustrator 19.2.1, SVG Export Plug-In . SVG Version: 6.00 Build 0)  -->
<svg version="1.1" id="图层_1" xmlns="http://www.w3.org/2000/svg" xmlns:xlink="http://www.w3.org/1999/xlink" x="0px" y="0px"
	 viewBox="0 0 3063.7 473.9" style="enable-background:new 0 0 3063.7 473.9;" xml:space="preserve">
<style type="text/css">
	.st0{fill:#909798;}
	.st1{fill:none;stroke:#909798;stroke-width:22;stroke-linecap:round;stroke-linejoin:round;stroke-miterlimit:10;}
</style>
<path class="st0" d="M1455.7,42.8c9,0,18,0,27,0c-0.4,5.2-2.5,10.8-4,15c-0.3,2.7-0.7,5.3-1,8c-0.3,0-0.7,0-1,0
	c-0.3,2.3-0.7,4.7-1,7c-0.3,0-0.7,0-1,0c0,1,0,2,0,3c-0.3,0-0.7,0-1,0c0,1,0,2,0,3c-0.3,0-0.7,0-1,0c0,1,0,2,0,3c-0.3,0-0.7,0-1,0
	c-0.3,2-0.7,4-1,6c-0.3,0-0.7,0-1,0c0,0.7,0,1.3,0,2c-0.3,0-0.7,0-1,0c0,1,0,2,0,3c-0.3,0-0.7,0-1,0c0,0.7,0,1.3,0,2
	c-0.3,0-0.7,0-1,0c0,1,0,2,0,3c-0.3,0-0.7,0-1,0c-0.3,1.3-0.7,2.7-1,4c-0.3,0-0.7,0-1,0c0,0.7,0,1.3,0,2c-0.3,0-0.7,0-1,0
	c-0.3,1.7-0.7,3.3-1,5c-0.7,0.3-1.3,0.7-2,1c0,0.7,0,1.3,0,2c-0.3,0-0.7,0-1,0c0,0.7,0,1.3,0,2c-0.3,0-0.7,0-1,0c0,0.7,0,1.3,0,2
	c-0.3,0-0.7,0-1,0c0,0.7,0,1.3,0,2c-0.3,0-0.7,0-1,0c-0.3,1-0.7,2-1,3c-0.7,0.3-1.3,0.7-2,1c0,0.7,0,1.3,0,2c-0.7,0.3-1.3,0.7-2,1
	c0,0.7,0,1.3,0,2c-0.3,0-0.7,0-1,0c0,99.3,0,198.7,0,298c-8.3,0-16.7,0-25,0c0-89,0-178,0-267c-0.3,0-0.7,0-1,0c-0.7,1-1.3,2-2,3
	c-0.7,0-1.3,0-2,0c-1.3,1.7-2.7,3.3-4,5c-0.7,0-1.3,0-2,0c-0.7,1-1.3,2-2,3c-0.7,0-1.3,0-2,0c-1,1.3-2,2.7-3,4c-0.7,0-1.3,0-2,0
	c-0.3,0.7-0.7,1.3-1,2c-0.7,0-1.3,0-2,0c-0.7,1-1.3,2-2,3c-0.7,0-1.3,0-2,0c-0.3,0.7-0.7,1.3-1,2c-1,0.3-2,0.7-3,1c0,0.3,0,0.7,0,1
	c-0.7,0-1.3,0-2,0c-0.3,0.7-0.7,1.3-1,2c-0.7,0-1.3,0-2,0c-0.3,0.7-0.7,1.3-1,2c-0.7,0-1.3,0-2,0c-0.3,0.7-0.7,1.3-1,2
	c-0.7,0-1.3,0-2,0c-0.3,0.7-0.7,1.3-1,2c-1.3,0.3-2.7,0.7-4,1c-0.3,0.7-0.7,1.3-1,2c-1.3,0.3-2.7,0.7-4,1c-3.1,1.7-3.1,3.4-8,4
	c0-5.3,0-10.7,0-16c1-0.3,2-0.7,3-1c0.3-0.7,0.7-1.3,1-2c0.7,0,1.3,0,2,0c0.7-1,1.3-2,2-3c0.7,0,1.3,0,2,0c0.3-0.7,0.7-1.3,1-2
	c0.7,0,1.3,0,2,0c0.7-1,1.3-2,2-3c0.7,0,1.3,0,2,0c1-1.3,2-2.7,3-4c0.7,0,1.3,0,2,0c2-2.3,4-4.7,6-7c0.7,0,1.3,0,2,0
	c1-1.3,2-2.7,3-4c2.7-2.3,5.3-4.7,8-7c0-0.7,0-1.3,0-2c2.3-2,4.7-4,7-6c0.3-1,0.7-2,1-3c1-0.7,2-1.3,3-2c0-0.7,0-1.3,0-2
	c1-0.7,2-1.3,3-2c0-0.7,0-1.3,0-2c0.7-0.3,1.3-0.7,2-1c0-0.7,0-1.3,0-2c0.7-0.3,1.3-0.7,2-1c0-0.7,0-1.3,0-2c0.7-0.3,1.3-0.7,2-1
	c0-0.7,0-1.3,0-2c0.7-0.3,1.3-0.7,2-1c0.3-1.3,0.7-2.7,1-4c0.7-0.3,1.3-0.7,2-1c0.7-2,1.3-4,2-6c0.7-0.3,1.3-0.7,2-1
	c0.3-1.3,0.7-2.7,1-4c0.3,0,0.7,0,1,0c0.3-1.3,0.7-2.7,1-4c0.3,0,0.7,0,1,0c0-1,0-2,0-3c0.3,0,0.7,0,1,0c0-0.7,0-1.3,0-2
	c0.3,0,0.7,0,1,0c0.3-1.3,0.7-2.7,1-4c0.3,0,0.7,0,1,0c0-1,0-2,0-3c0.3,0,0.7,0,1,0c0-0.7,0-1.3,0-2c0.3,0,0.7,0,1,0
	c0.7-3,1.3-6,2-9c0.3,0,0.7,0,1,0c1.3-5.7,2.7-11.3,4-17C1453.4,54.9,1455.4,49.2,1455.7,42.8z"/>
<path class="st0" d="M1888.7,42.8c9.3,0,18.7,0,28,0c-1,4.3-2,8.7-3,13c-0.3,0-0.7,0-1,0c0,1.3,0,2.7,0,4c-0.3,0-0.7,0-1,0
	c0,1,0,2,0,3c-0.3,0-0.7,0-1,0c0,1,0,2,0,3c-0.3,0-0.7,0-1,0c0,1,0,2,0,3c-0.3,0-0.7,0-1,0c0,1,0,2,0,3c-0.3,0-0.7,0-1,0
	c0,1,0,2,0,3c-0.3,0-0.7,0-1,0c0,1,0,2,0,3c-0.3,0-0.7,0-1,0c0,1,0,2,0,3c-0.3,0-0.7,0-1,0c0,0.7,0,1.3,0,2c-0.3,0-0.7,0-1,0
	c-0.3,2-0.7,4-1,6c-0.3,0-0.7,0-1,0c0,0.7,0,1.3,0,2c-0.3,0-0.7,0-1,0c0,1,0,2,0,3c-0.3,0-0.7,0-1,0c0,0.7,0,1.3,0,2
	c-0.3,0-0.7,0-1,0c0,1,0,2,0,3c-0.3,0-0.7,0-1,0c-0.3,1.3-0.7,2.7-1,4c-0.3,0-0.7,0-1,0c0,1,0,2,0,3c-0.3,0-0.7,0-1,0
	c0,0.7,0,1.3,0,2c-0.3,0-0.7,0-1,0c0,0.7,0,1.3,0,2c-0.3,0-0.7,0-1,0c0,0.7,0,1.3,0,2c-0.3,0-0.7,0-1,0c0,0.7,0,1.3,0,2
	c-0.3,0-0.7,0-1,0c0,0.7,0,1.3,0,2c-0.3,0-0.7,0-1,0c0,0.7,0,1.3,0,2c-0.3,0-0.7,0-1,0c0,0.7,0,1.3,0,2c-0.3,0-0.7,0-1,0
	c0,0.7,0,1.3,0,2c-3,4.7-6,9.3-9,14c0,96.3,0,192.7,0,289c-9,0-18,0-27,0c0-86.7,0-173.3,0-260c-0.3,0-0.7,0-1,0c-2,3.2-4.9,3.9-8,6
	c-0.3,0.7-0.7,1.3-1,2c-0.7,0-1.3,0-2,0c-0.3,0.7-0.7,1.3-1,2c-0.7,0-1.3,0-2,0c-0.3,0.7-0.7,1.3-1,2c-0.7,0-1.3,0-2,0
	c-0.3,0.7-0.7,1.3-1,2c-0.7,0-1.3,0-2,0c-0.3,0.7-0.7,1.3-1,2c-1.3,0.3-2.7,0.7-4,1c-0.3,0.7-0.7,1.3-1,2c-0.7,0-1.3,0-2,0
	c-0.3,0.7-0.7,1.3-1,2c-0.7,0-1.3,0-2,0c0,0.3,0,0.7,0,1c-0.7,0-1.3,0-2,0c-0.3,0.7-0.7,1.3-1,2c-2,0.7-4,1.3-6,2
	c-0.3,0.7-0.7,1.3-1,2c-2,0.7-4,1.3-6,2c-0.3,0.7-0.7,1.3-1,2c-0.7,0-1.3,0-2,0c0,0.3,0,0.7,0,1c-0.7,0-1.3,0-2,0c0,0.3,0,0.7,0,1
	c-1,0.3-2,0.7-3,1c0-6,0-12,0-18c3-1.7,6-3.3,9-5c0.3-0.7,0.7-1.3,1-2c0.7,0,1.3,0,2,0c0.3-0.7,0.7-1.3,1-2c0.7,0,1.3,0,2,0
	c0.7-1,1.3-2,2-3c0.7,0,1.3,0,2,0c1-1.3,2-2.7,3-4c0.7,0,1.3,0,2,0c1.3-1.7,2.7-3.3,4-5c0.7,0,1.3,0,2,0c1.7-2,3.3-4,5-6
	c4.3-4,8.7-8,13-12c0-0.7,0-1.3,0-2c1.3-1,2.7-2,4-3c0-0.7,0-1.3,0-2c1.3-1,2.7-2,4-3c0-0.7,0-1.3,0-2c0.7-0.3,1.3-0.7,2-1
	c0-0.7,0-1.3,0-2c1-0.7,2-1.3,3-2c0-0.7,0-1.3,0-2c0.7-0.3,1.3-0.7,2-1c0.3-1.3,0.7-2.7,1-4c0.7-0.3,1.3-0.7,2-1
	c0.3-1.3,0.7-2.7,1-4C1875.4,93.8,1883.5,70.4,1888.7,42.8z"/>
<path class="st0" d="M2273.7,42.8c8.3,0,16.7,0,25,0c0,17.7,0,35.3,0,53c14.3,0,28.7,0,43,0c0,6,0,12,0,18c-14.3,0-28.7,0-43,0
	c0,103,0,206,0,309c-8.3,0-16.7,0-25,0c0-103,0-206,0-309c-15.7,0-31.3,0-47,0c0-6,0-12,0-18c15.7,0,31.3,0,47,0
	C2273.7,78.2,2273.7,60.5,2273.7,42.8z"/>
<path class="st0" d="M2732.7,138.8c75.7,0,151.3,0,227,0c0,6,0,12,0,18c-75.7,0-151.3,0-227,0
	C2732.7,150.8,2732.7,144.8,2732.7,138.8z"/>
<path class="st0" d="M776.7,264.8c-51,0-102,0-153,0c0,34,0,68,0,102c30,0,60,0,90,0c18.9,0,36.7,0.6,48-7c1.3-1.7,2.7-3.3,4-5
	c1.3-1,2.7-2,4-3C780.3,336.2,776.9,291.5,776.7,264.8z M750.7,330.8c0,2,0,4,0,6c-1.4,4.1-5,6.6-7,10c-2.8,0.6-5.5,2.2-8,3
	c-29,0-58,0-87,0c0-23.3,0-46.7,0-70c34,0,68,0,102,0c0,13,0,26,0,39c0.3,4,0.7,8,1,12C751.4,330.8,751.1,330.8,750.7,330.8z"/>
<path class="st1" d="M370.3,429.1H89c-26.4,0-48-21.6-48-48V99.8c0-26.4,21.6-48,48-48h281.3c26.4,0,48,21.6,48,48v281.3
	C418.2,407.5,396.7,429.1,370.3,429.1z"/>
</svg>
