<?xml version="1.0" encoding="utf-8"?>
<!-- Generator: Adobe Illustrator 19.2.1, SVG Export Plug-In . SVG Version: 6.00 Build 0)  -->
<svg version="1.1" id="图层_1" xmlns="http://www.w3.org/2000/svg" xmlns:xlink="http://www.w3.org/1999/xlink" x="0px" y="0px"
	 viewBox="0 0 3063.7 473.9" style="enable-background:new 0 0 3063.7 473.9;" xml:space="preserve">
<style type="text/css">
	.st0{fill:#909798;}
</style>
<path class="st0" d="M688.7,40.8c9.3,0,18.7,0,28,0c0,10.7,0,21.3,0,32c58,0,116,0,174,0c0,6,0,12,0,18c-127,0-254,0-381,0
	c0-6,0-12,0-18c59.7,0,119.3,0,179,0C688.7,62.2,688.7,51.5,688.7,40.8z"/>
<path class="st0" d="M1963.7,77.8c-0.2,8.6,1.9,20.1,4,27c0.7,5.3,1.3,10.7,2,16c5.1,15.6,8.6,32,15,46c-7,0-14,0-21,0
	c-5-12.3-10-24.7-15-37c0-1.3,0-2.7,0-4c-0.3,0-0.7,0-1,0c0-1,0-2,0-3c-0.3,0-0.7,0-1,0c-0.3-2.3-0.7-4.7-1-7c-0.3,0-0.7,0-1,0
	c0-1.3,0-2.7,0-4c-0.3,0-0.7,0-1,0c-0.3-3-0.7-6-1-9c-0.3,0-0.7,0-1,0c0-1.7,0-3.3,0-5c-0.3,0-0.7,0-1,0c0-2,0-4,0-6
	c-0.3,0-0.7,0-1,0c0-2,0-4,0-6c-0.3,0-0.7,0-1,0c-0.8-2.9,0-5.4-1-8C1946.4,77.8,1955.1,77.8,1963.7,77.8z"/>
<path class="st0" d="M2129.7,77.8c9,0,18,0,27,0c-0.6,8.5-2.7,18.8-5,26c0,1.7,0,3.3,0,5c-0.3,0-0.7,0-1,0c0,1.3,0,2.7,0,4
	c-0.3,0-0.7,0-1,0c0,1.3,0,2.7,0,4c-0.3,0-0.7,0-1,0c0,1.3,0,2.7,0,4c-0.3,0-0.7,0-1,0c0,1,0,2,0,3c-0.3,0-0.7,0-1,0c0,1,0,2,0,3
	c-0.3,0-0.7,0-1,0c0,1.3,0,2.7,0,4c-0.3,0-0.7,0-1,0c0,1,0,2,0,3c-0.3,0-0.7,0-1,0c0,1,0,2,0,3c-0.3,0-0.7,0-1,0c0,1,0,2,0,3
	c-0.3,0-0.7,0-1,0c0,0.7,0,1.3,0,2c-0.3,0-0.7,0-1,0c-0.3,2-0.7,4-1,6c-0.3,0-0.7,0-1,0c0,0.7,0,1.3,0,2c-0.3,0-0.7,0-1,0
	c-0.3,1.7-0.7,3.3-1,5c-0.3,0-0.7,0-1,0c0,0.7,0,1.3,0,2c-0.3,0-0.7,0-1,0c0,0.7,0,1.3,0,2c-1.4,2.6-3.2,4.5-4,8c-7.3,0-14.7,0-22,0
	c0.7-2,1.3-4,2-6c0.3,0,0.7,0,1,0c0-1,0-2,0-3c0.3,0,0.7,0,1,0c0-0.7,0-1.3,0-2c0.3,0,0.7,0,1,0c0.3-2,0.7-4,1-6c0.3,0,0.7,0,1,0
	c0-0.7,0-1.3,0-2c0.3,0,0.7,0,1,0c0-1,0-2,0-3c0.3,0,0.7,0,1,0c0-1.3,0-2.7,0-4c0.3,0,0.7,0,1,0c0-1,0-2,0-3c0.3,0,0.7,0,1,0
	c0.3-2.3,0.7-4.7,1-7c0.3,0,0.7,0,1,0c0-1.7,0-3.3,0-5c0.3,0,0.7,0,1,0c0.3-3,0.7-6,1-9c0.3,0,0.7,0,1,0
	C2126.4,103.8,2128.1,90.8,2129.7,77.8z"/>
<path class="st0" d="M982.7,110.8c0.7,10,1.3,20,2,30c0.3,0,0.7,0,1,0c0,2.7,0,5.3,0,8c0.3,0,0.7,0,1,0c0,2.7,0,5.3,0,8
	c0.3,0,0.7,0,1,0c0,2.3,0,4.7,0,7c0.3,0,0.7,0,1,0c0,2.3,0,4.7,0,7c3,10.2,3.9,23.1,7,33c0.7,5,1.3,10,2,15c6.8,20.8,9.9,44.5,18,64
	c-7.3,0-14.7,0-22,0c-2.7-7-5.3-14-8-21c-1-4.3-2-8.7-3-13c-0.3,0-0.7,0-1,0c0-1.3,0-2.7,0-4c-0.3,0-0.7,0-1,0c0-1,0-2,0-3
	c-0.3,0-0.7,0-1,0c-0.3-2.3-0.7-4.7-1-7c-0.3,0-0.7,0-1,0c0-1.3,0-2.7,0-4c-0.3,0-0.7,0-1,0c-0.3-2.7-0.7-5.3-1-8c-0.3,0-0.7,0-1,0
	c-0.3-2.7-0.7-5.3-1-8c-0.3,0-0.7,0-1,0c0-1.7,0-3.3,0-5c-3.4-10.5-4.7-24.1-8-35c-2.7-21.3-5.3-42.7-8-64
	C965.4,110.8,974.1,110.8,982.7,110.8z"/>
<path class="st0" d="M1275.7,110.8c8.3,0,16.7,0,25,0c0.2,9.6-0.8,21.5-3,29c0,2.7,0,5.3,0,8c-1.7,5.8-2.3,14.3-4,20
	c-0.7,6-1.3,12-2,18c-0.3,0-0.7,0-1,0c0,1.7,0,3.3,0,5c-0.3,0-0.7,0-1,0c0,1.7,0,3.3,0,5c-0.3,0-0.7,0-1,0c0,1.7,0,3.3,0,5
	c-0.3,0-0.7,0-1,0c0,1.7,0,3.3,0,5c-0.3,0-0.7,0-1,0c-0.7,4.3-1.3,8.7-2,13c-0.3,0-0.7,0-1,0c-0.3,2.7-0.7,5.3-1,8c-0.3,0-0.7,0-1,0
	c0,1.3,0,2.7,0,4c-0.3,0-0.7,0-1,0c0,1,0,2,0,3c-0.3,0-0.7,0-1,0c-0.7,3.7-1.3,7.3-2,11c-0.3,0-0.7,0-1,0c0,1.3,0,2.7,0,4
	c-0.3,0-0.7,0-1,0c0,1,0,2,0,3c-0.3,0-0.7,0-1,0c-0.7,3.3-1.3,6.7-2,10c-0.3,0-0.7,0-1,0c0,1,0,2,0,3c-0.3,0-0.7,0-1,0c0,1,0,2,0,3
	c-0.3,0-0.7,0-1,0c0,1,0,2,0,3c-0.3,0-0.7,0-1,0c0,1,0,2,0,3c-0.3,0-0.7,0-1,0c0,0.7,0,1.3,0,2c-0.3,0-0.7,0-1,0c-0.3,2-0.7,4-1,6
	c-0.3,0-0.7,0-1,0c-2.2,2-17.3,1.1-22,1c0-0.3,0-0.7,0-1c0.3,0,0.7,0,1,0c0.3-2,0.7-4,1-6c0.3,0,0.7,0,1,0c0-1.3,0-2.7,0-4
	c0.3,0,0.7,0,1,0c0-1,0-2,0-3c0.3,0,0.7,0,1,0c0-1,0-2,0-3c0.3,0,0.7,0,1,0c0.3-2.3,0.7-4.7,1-7c0.3,0,0.7,0,1,0c0-1.3,0-2.7,0-4
	c0.3,0,0.7,0,1,0c0.3-2.7,0.7-5.3,1-8c0.3,0,0.7,0,1,0c0-1,0-2,0-3c0.3,0,0.7,0,1,0c0-1.3,0-2.7,0-4c0.3,0,0.7,0,1,0
	c0-1.3,0-2.7,0-4c0.3,0,0.7,0,1,0c0-1.3,0-2.7,0-4c0.3,0,0.7,0,1,0c0.3-3,0.7-6,1-9c0.3,0,0.7,0,1,0c0.3-3,0.7-6,1-9
	c0.3,0,0.7,0,1,0c0.3-3.3,0.7-6.7,1-10c0.3,0,0.7,0,1,0c0.7-5.3,1.3-10.7,2-16c0.3,0,0.7,0,1,0c0-1.7,0-3.3,0-5c0.3,0,0.7,0,1,0
	c0-2,0-4,0-6c0.3,0,0.7,0,1,0c0-2,0-4,0-6c0.3,0,0.7,0,1,0c0-2.3,0-4.7,0-7c0.3,0,0.7,0,1,0c0-2.3,0-4.7,0-7c0.3,0,0.7,0,1,0
	c0-2.7,0-5.3,0-8c0.3,0,0.7,0,1,0C1273.7,136.2,1274.7,123.5,1275.7,110.8z"/>
<path class="st0" d="M1498.7,118.8c8.3,0,16.7,0,25,0c4.2,26.8,7.1,55.6,15,79c0,1.3,0,2.7,0,4c2.4,7.2,4.1,16.1,7,23
	c-7.3,0-14.7,0-22,0C1512.1,194.4,1501.3,157.7,1498.7,118.8z"/>
<path class="st0" d="M1733.7,118.8c0.1,9.3-1.8,21.6-4,29c-0.3,3.7-0.7,7.3-1,11c-0.3,0-0.7,0-1,0c-0.3,3.3-0.7,6.7-1,10
	c-0.3,0-0.7,0-1,0c0,1.3,0,2.7,0,4c-0.3,0-0.7,0-1,0c0,1.3,0,2.7,0,4c-0.3,0-0.7,0-1,0c0,1.3,0,2.7,0,4c-0.3,0-0.7,0-1,0
	c0,1.3,0,2.7,0,4c-0.3,0-0.7,0-1,0c0,1.3,0,2.7,0,4c-0.3,0-0.7,0-1,0c0,1,0,2,0,3c-0.3,0-0.7,0-1,0c0,1,0,2,0,3c-0.3,0-0.7,0-1,0
	c0,1.3,0,2.7,0,4c-0.3,0-0.7,0-1,0c0,1,0,2,0,3c-0.3,0-0.7,0-1,0c0,1,0,2,0,3c-0.3,0-0.7,0-1,0c0,1,0,2,0,3c-0.3,0-0.7,0-1,0
	c0,1,0,2,0,3c-0.3,0-0.7,0-1,0c-0.3,2-0.7,4-1,6c-0.3,0-0.7,0-1,0c-1.2,2.6-1.6,4.8-2,8c-7.3,0-14.7,0-22,0c1-4.3,2-8.7,3-13
	c0.3,0,0.7,0,1,0c0.3-2.7,0.7-5.3,1-8c0.3,0,0.7,0,1,0c0-1.3,0-2.7,0-4c0.3,0,0.7,0,1,0c0-1.3,0-2.7,0-4c0.3,0,0.7,0,1,0
	c0-1.3,0-2.7,0-4c0.3,0,0.7,0,1,0c0-1.3,0-2.7,0-4c0.3,0,0.7,0,1,0c2.3-13.3,4.7-26.7,7-40c0-2.7,0-5.3,0-8c0.3,0,0.7,0,1,0
	c0-3.3,0-6.7,0-10c0.3,0,0.7,0,1,0c0-0.3,0-0.7,0-1c0.5-2.9-1.1-8.7,1-10C1716.4,118.8,1725.1,118.8,1733.7,118.8z"/>
<path class="st0" d="M2357.7,164.8c5.3,0,10.7,0,16,0c0.6,1.5,0.8,1.6,1,4c-1.8,2.1,0,5.7-1,9c-0.3,0-0.7,0-1,0c0,3,0,6,0,9
	c-0.3,0-0.7,0-1,0c0,2.7,0,5.3,0,8c-0.3,0-0.7,0-1,0c0,2.7,0,5.3,0,8c-0.3,0-0.7,0-1,0c0,2.3,0,4.7,0,7c-0.3,0-0.7,0-1,0
	c0,2.3,0,4.7,0,7c-0.3,0-0.7,0-1,0c0,2.3,0,4.7,0,7c-0.3,0-0.7,0-1,0c-0.3,4-0.7,8-1,12c-3.3,10.9-4.5,24.5-8,35c0,1.3,0,2.7,0,4
	c-0.3,0-0.7,0-1,0c0,1.7,0,3.3,0,5c-0.3,0-0.7,0-1,0c0,1.3,0,2.7,0,4c-0.3,0-0.7,0-1,0c-1.1,3.2,0.1,5.8-2,8c-2.2,1.9-15.6,1.1-20,1
	c1-6,3.2-12.7,5-18c0.7-4,1.3-8,2-12c0.3,0,0.7,0,1,0c0-1.7,0-3.3,0-5c0.3,0,0.7,0,1,0c0.3-3,0.7-6,1-9c0.3,0,0.7,0,1,0
	c0-1.3,0-2.7,0-4c0.3,0,0.7,0,1,0c0-1.7,0-3.3,0-5c0.3,0,0.7,0,1,0c0-1.7,0-3.3,0-5c2.5-8.1,3.5-18.8,6-27c0-2,0-4,0-6
	c0.3,0,0.7,0,1,0C2354.4,189.5,2356.1,177.1,2357.7,164.8z"/>
<path class="st0" d="M2569.7,165.8c6,0,12,0,18,0c3,10.3,6,20.7,9,31c0.3,2.7,0.7,5.3,1,8c0.3,0,0.7,0,1,0c0,1.3,0,2.7,0,4
	c0.3,0,0.7,0,1,0c0,1.3,0,2.7,0,4c0.3,0,0.7,0,1,0c0,1.3,0,2.7,0,4c0.3,0,0.7,0,1,0c0,1.3,0,2.7,0,4c0.3,0,0.7,0,1,0
	c0,1.7,0,3.3,0,5c2.8,8.7,4.2,20.1,7,29c0.3,3.7,0.7,7.3,1,11c2.4,7.7,4.1,18.1,5,27c-6.7,0-13.3,0-20,0c-0.6-8.6-1.8-21.5-4-29
	c-0.3-4.3-0.7-8.7-1-13c-2.8-9.4-4.1-21-7-30c0-1.7,0-3.3,0-5c-0.3,0-0.7,0-1,0c0-1.3,0-2.7,0-4c-0.3,0-0.7,0-1,0c0-1.3,0-2.7,0-4
	c-0.3,0-0.7,0-1,0c0-1.3,0-2.7,0-4c-0.3,0-0.7,0-1,0c0-1.3,0-2.7,0-4c-0.3,0-0.7,0-1,0c0-1.3,0-2.7,0-4c-0.3,0-0.7,0-1,0
	c0-1,0-2,0-3c-0.3,0-0.7,0-1,0c-0.3-2.3-0.7-4.7-1-7c-0.3,0-0.7,0-1,0c0-1.3,0-2.7,0-4C2573,176.9,2570.5,172.1,2569.7,165.8z"/>
<path class="st0" d="M678.7,191.8c-0.8,3.5-2.6,4.5-4,7c-0.3,1.3-0.7,2.7-1,4c-0.7,0.3-1.3,0.7-2,1c-0.3,1.3-0.7,2.7-1,4
	c-1,0.7-2,1.3-3,2c0,0.7,0,1.3,0,2c-1,0.7-2,1.3-3,2c0,0.7,0,1.3,0,2c-1.7,1.3-3.3,2.7-5,4c0,0.7,0,1.3,0,2c-1,0.7-2,1.3-3,2
	c-2.3,2.7-4.7,5.3-7,8c-0.7,0-1.3,0-2,0c-1.3,1.7-2.7,3.3-4,5c-0.7,0-1.3,0-2,0c-0.7,1-1.3,2-2,3c-0.7,0-1.3,0-2,0
	c-0.3,0.7-0.7,1.3-1,2c-1,0.3-2,0.7-3,1c0,0.3,0,0.7,0,1c-0.7,0-1.3,0-2,0c-0.3,0.7-0.7,1.3-1,2c-1,0.3-2,0.7-3,1c0,0.3,0,0.7,0,1
	c-2,0.7-4,1.3-6,2c-0.3,0.7-0.7,1.3-1,2c-1.3,0.3-2.7,0.7-4,1c0,0.3,0,0.7,0,1c-2,0.7-4,1.3-6,2c0,0.3,0,0.7,0,1c-1,0-2,0-3,0
	c0,0.3,0,0.7,0,1c-1.3,0.3-2.7,0.7-4,1c0,0.3,0,0.7,0,1c-1,0-2,0-3,0c0,0.3,0,0.7,0,1c-0.7,0-1.3,0-2,0c0,0.3,0,0.7,0,1
	c-2,0.3-4,0.7-6,1c0,0.3,0,0.7,0,1c-0.7,0-1.3,0-2,0c0,0.3,0,0.7,0,1c-6,1.7-12,3.3-18,5c0-5.7,0-11.3,0-17c19.7-7.9,36-17.5,52-29
	c7-7.3,14-14.7,21-22c0-0.7,0-1.3,0-2c1-0.7,2-1.3,3-2c0-0.7,0-1.3,0-2c0.7-0.3,1.3-0.7,2-1c0.3-1,0.7-2,1-3
	C660.7,191.8,669.7,191.8,678.7,191.8z"/>
<path class="st0" d="M745.7,191.8c0.6,2.7,1.5,4.9,3,7c1,0.7,2,1.3,3,2c0,0.7,0,1.3,0,2c1,0.7,2,1.3,3,2c0,0.7,0,1.3,0,2
	c2.3,2,4.7,4,7,6c3.3,3.7,6.7,7.3,10,11c0.7,0,1.3,0,2,0c1,1.3,2,2.7,3,4c1,0.3,2,0.7,3,1c0.3,0.7,0.7,1.3,1,2c0.7,0,1.3,0,2,0
	c0.3,0.7,0.7,1.3,1,2c1,0.3,2,0.7,3,1c0,0.3,0,0.7,0,1c1.3,0.3,2.7,0.7,4,1c0.3,0.7,0.7,1.3,1,2c1.3,0.3,2.7,0.7,4,1
	c0.3,0.7,0.7,1.3,1,2c2,0.7,4,1.3,6,2c0,0.3,0,0.7,0,1c0.7,0,1.3,0,2,0c0,0.3,0,0.7,0,1c2,0.7,4,1.3,6,2c0,0.3,0,0.7,0,1
	c1,0,2,0,3,0c0,0.3,0,0.7,0,1c3.7,1.3,7.3,2.7,11,4c0.1,5.6,0.5,13-1,17c-12-4-24-8-36-12c0-0.3,0-0.7,0-1c-2-0.7-4-1.3-6-2
	c0-0.3,0-0.7,0-1c-0.7,0-1.3,0-2,0c0-0.3,0-0.7,0-1c-2-0.7-4-1.3-6-2c-0.3-0.7-0.7-1.3-1-2c-1.3-0.3-2.7-0.7-4-1
	c-0.3-0.7-0.7-1.3-1-2c-1.3-0.3-2.7-0.7-4-1c-0.3-0.7-0.7-1.3-1-2c-0.7,0-1.3,0-2,0c-0.7-1-1.3-2-2-3c-0.7,0-1.3,0-2,0
	c-0.3-0.7-0.7-1.3-1-2c-1-0.3-2-0.7-3-1c-1.3-1.7-2.7-3.3-4-5c-0.7,0-1.3,0-2,0c-2.7-3-5.3-6-8-9c-1.3-1-2.7-2-4-3c0-0.7,0-1.3,0-2
	c-1.7-1.3-3.3-2.7-5-4c0-0.7,0-1.3,0-2c-1-0.7-2-1.3-3-2c-3.3-6-6.7-12-10-18C726.4,191.8,736.1,191.8,745.7,191.8z"/>
<path class="st0" d="M2767.7,211.8c0,42,0,84,0,126c33.3,0,66.7,0,100,0c20.9,0,33.5,0.4,46-8c0.7,0,1.3,0,2,0c1.3-1.7,2.7-3.3,4-5
	c0.7-0.3,1.3-0.7,2-1c7.1-10.1,7-25.5,7-43c0-23,0-46,0-69C2875.1,211.8,2821.4,211.8,2767.7,211.8z M2898.7,312.8
	c-5.8,8.1-19.9,8-34,8c-24.3,0-48.7,0-73,0c0-30.7,0-61.3,0-92c37,0,74,0,111,0c0,18.7,0,37.3,0,56
	C2902.7,296.1,2903.3,306.4,2898.7,312.8z"/>
</svg>
