<?xml version="1.0" encoding="utf-8"?>
<!-- Generator: Adobe Illustrator 19.2.1, SVG Export Plug-In . SVG Version: 6.00 Build 0)  -->
<svg version="1.1" id="图层_1" xmlns="http://www.w3.org/2000/svg" xmlns:xlink="http://www.w3.org/1999/xlink" x="0px" y="0px"
	 viewBox="0 0 416.5 175.6" style="enable-background:new 0 0 416.5 175.6;" xml:space="preserve">
<style type="text/css">
	.st0{fill:url(#SVGID_1_);}
	.st1{fill:url(#SVGID_2_);}
	.st2{fill:url(#SVGID_3_);}
	.st3{fill:url(#SVGID_4_);}
	.st4{fill:url(#SVGID_5_);}
	.st5{fill:url(#SVGID_6_);}
	.st6{fill:url(#SVGID_7_);}
	.st7{fill:url(#SVGID_8_);}
	.st8{fill:url(#SVGID_9_);}
	.st9{fill:url(#SVGID_10_);}
</style>
<g id="图层_1_1_">
	
		<linearGradient id="SVGID_1_" gradientUnits="userSpaceOnUse" x1="-13.6666" y1="160.7422" x2="434.811" y2="162.2422" gradientTransform="matrix(1 0 0 -1 0 178)">
		<stop  offset="0" style="stop-color:#4EBBF2"/>
		<stop  offset="1" style="stop-color:#20B0FA"/>
	</linearGradient>
	<path class="st0" d="M11.5,0.6h34c0.5,2.8,2.1,4.8,3,7c0.3,2.7,0.7,5.3,1,8h1v3h1v2h1v3h1v2h1c0.3,2.7,0.7,5.3,1,8h-34
		c-0.5-3.1-2.2-5.7-3-8v-5h-1v-2h-1c-0.3-2-0.7-4-1-6h-1v-2h-1v-3h-1c0.3-1,0.7-2,1-3h-1C12.2,3.2,11.8,1.9,11.5,0.6z"/>
	
		<linearGradient id="SVGID_2_" gradientUnits="userSpaceOnUse" x1="-13.6434" y1="153.8115" x2="434.8342" y2="155.3114" gradientTransform="matrix(1 0 0 -1 0 178)">
		<stop  offset="0" style="stop-color:#4EBBF2"/>
		<stop  offset="1" style="stop-color:#20B0FA"/>
	</linearGradient>
	<path class="st1" d="M105.5,0.6v3h110c-0.3,3.3-0.7,6.7-1,10h-1v2h-1c-0.7,4.7-1.3,9.3-2,14h-1c-0.3,1.3-0.7,2.7-1,4h-1
		c-0.7,4-1.3,8-2,12h-36c0.3-1,0.7-2,1-3h1c1-4.3,2-8.7,3-13h-77c-0.8,1.1,0.1,0.1-1,1c0,3.3-2.6,14.6-4,16c-1.8,1.6-6.6,1-10,1h-24
		c0.7-3,1.3-6,2-9h1c0.7-4,1.3-8,2-12h1v-3h1v-2h1c1-5.3,2-10.7,3-16h2v-4C78.9-1.2,95.9,0.5,105.5,0.6z"/>
	
		<linearGradient id="SVGID_3_" gradientUnits="userSpaceOnUse" x1="-13.6633" y1="159.7511" x2="434.8143" y2="161.251" gradientTransform="matrix(1 0 0 -1 0 178)">
		<stop  offset="0" style="stop-color:#4EBBF2"/>
		<stop  offset="1" style="stop-color:#20B0FA"/>
	</linearGradient>
	<path class="st2" d="M230.5,1.6h34c-0.3,10-0.7,20-1,30c-7.6,2.8-25.2,1.1-35,1C229.2,22.2,229.8,11.9,230.5,1.6z"/>
	
		<linearGradient id="SVGID_4_" gradientUnits="userSpaceOnUse" x1="-13.4182" y1="86.4645" x2="435.0594" y2="87.9645" gradientTransform="matrix(1 0 0 -1 0 178)">
		<stop  offset="0" style="stop-color:#4EBBF2"/>
		<stop  offset="1" style="stop-color:#20B0FA"/>
	</linearGradient>
	<path class="st3" d="M277.5,4.6h136c-2.3,47.3-4.7,94.7-7,142h1v-1h7c-0.3,10-0.7,20-1,30c-11.9,0.3-37.5,2.7-40-6
		c-2.4-2.4-2-7.1-2-12c0.3-8.3,0.7-16.7,1-25c1.7-33.3,3.3-66.7,5-100h-102v-7h1v-19h1C277.5,6.6,277.5,4.6,277.5,4.6z"/>
	
		<linearGradient id="SVGID_5_" gradientUnits="userSpaceOnUse" x1="-13.5264" y1="118.8096" x2="434.9512" y2="120.3095" gradientTransform="matrix(1 0 0 -1 0 178)">
		<stop  offset="0" style="stop-color:#4EBBF2"/>
		<stop  offset="1" style="stop-color:#20B0FA"/>
	</linearGradient>
	<path class="st4" d="M158.5,35.6v2c-1,0.3-2,0.7-3,1c-0.7,1-1.3,2-2,3h-2c-1,1.3-2,2.7-3,4c-3,2-3.9,0.6-6,4h29c2,3,2.8,0.9,4,5
		c1,0.3,2,0.7,3,1v1c1,0.3,2,0.7,3,1c0.3,0.7,0.7,1.3,1,2h2c0.7,1,1.3,2,2,3h2c0.3,0.7,0.7,1.3,1,2h2c0.7,1,1.3,2,2,3h2
		c0.7,1,1.3,2,2,3c3.3,2.2,4.7,0.1,6,5c3,1.7,6,3.3,9,5v1h-47c-1.2-4.1-0.6-1.3-3-3c-0.3-0.7-0.7-1.3-1-2h-2c-0.7-1-1.3-2-2-3h-2
		c-0.3-0.7-0.7-1.3-1-2h-2c-0.7-1-1.3-2-2-3h-2c-0.3-0.7-0.7-1.3-1-2h-2c-0.7-1-1.3-2-2-3h-2c-0.3-0.7-0.7-1.3-1-2
		c-2.1-1.9-4.9-4.2-8-5c-1.5,2.2-4.1,3.2-6,5c-0.3,0.7-0.7,1.3-1,2h-3c-1,1.3-2,2.7-3,4h-2c-1.3,1.7-2.7,3.3-4,5h-2
		c-1.3,1.7-2.7,3.3-4,5h-2c-0.3,0.7-0.7,1.3-1,2h-2c-0.3,0.7-0.7,1.3-1,2h-47v-1h1c1.1-1.3,2.7-1.8,4-3c0.3-0.7,0.7-1.3,1-2h2
		c1.3-1.7,2.7-3.3,4-5c1.3-0.3,2.7-0.7,4-1c0.3-0.7,0.7-1.3,1-2h2c1-1.3,2-2.7,3-4h2c1.3-1.7,2.7-3.3,4-5h2c1-1.3,2-2.7,3-4h3
		c1-1.3,2-2.7,3-4h2c1-1.3,2-2.7,3-4h2c1.3-1.7,2.7-3.3,4-5h2c0.7-1,1.3-2,2-3c1.3-0.3,2.7-0.7,4-1c0.3-0.7,0.7-1.3,1-2H158.5z"/>
	
		<linearGradient id="SVGID_6_" gradientUnits="userSpaceOnUse" x1="-13.5228" y1="117.7595" x2="434.9547" y2="119.2594" gradientTransform="matrix(1 0 0 -1 0 178)">
		<stop  offset="0" style="stop-color:#4EBBF2"/>
		<stop  offset="1" style="stop-color:#20B0FA"/>
	</linearGradient>
	<path class="st5" d="M54.5,38.6c-0.3,1.7-0.7,3.3-1,5h-1v2c-0.7,0.3-1.3,0.7-2,1v3h-1v2h-1c-0.3,2-0.7,4-1,6h-1v2h-1v2h-1
		c-0.7,2-1.3,4-2,6h-1v3h-1c-0.8,1.9-3.1,10.5-4,11h-34c0.3-1.7,0.7-3.3,1-5h1v-3c0.7-0.3,1.3-0.7,2-1v-3h1c0.3-1.3,0.7-2.7,1-4h1
		c0.3-1.7,0.7-3.3,1-5h1v-3c0.7-0.3,1.3-0.7,2-1v-3h1c0.3-1.3,0.7-2.7,1-4h1v-3c1.3-2.7,2.7-5.3,4-8H54.5z"/>
	
		<linearGradient id="SVGID_7_" gradientUnits="userSpaceOnUse" x1="-13.3624" y1="69.7901" x2="435.1152" y2="71.29" gradientTransform="matrix(1 0 0 -1 0 178)">
		<stop  offset="0" style="stop-color:#4EBBF2"/>
		<stop  offset="1" style="stop-color:#20B0FA"/>
	</linearGradient>
	<path class="st6" d="M305.5,38.6h33c-0.7,13.3-1.3,26.7-2,40h27c1.4,3.8,1,10.7,1,16c-1.9,2.1-1.1,9.2-1,13h-28
		c-1.3,22.7-2.7,45.3-4,68h-33c1-22.7,2-45.3,3-68h-27c0.3-9.7,0.7-19.3,1-29h28C304.2,65.2,304.8,51.9,305.5,38.6z"/>
	
		<linearGradient id="SVGID_8_" gradientUnits="userSpaceOnUse" x1="-13.3532" y1="67.0318" x2="435.1244" y2="68.5317" gradientTransform="matrix(1 0 0 -1 0 178)">
		<stop  offset="0" style="stop-color:#4EBBF2"/>
		<stop  offset="1" style="stop-color:#20B0FA"/>
	</linearGradient>
	<path class="st7" d="M216.5,44.6h46c0.2,35.7-3.8,66.9-4,102c5.3-0.1,12.2-0.4,16,1c-1,9.3-2,18.7-3,28c-13,0.1-27.6,0.1-39-1
		c-2-3-0.9-0.5-3-2c-0.3-0.7-0.7-1.3-1-2c-1-0.7-2-1.3-3-2c-0.7-2-1.3-4-2-6h-1c1.7-29.7,3.3-59.3,5-89c-2.9-1.1-7.7-1-12-1
		C215.8,63.2,216.2,53.9,216.5,44.6z"/>
	
		<linearGradient id="SVGID_9_" gradientUnits="userSpaceOnUse" x1="-13.348" y1="65.4958" x2="435.1295" y2="66.9958" gradientTransform="matrix(1 0 0 -1 0 178)">
		<stop  offset="0" style="stop-color:#4EBBF2"/>
		<stop  offset="1" style="stop-color:#20B0FA"/>
	</linearGradient>
	<path class="st8" d="M13.5,84.6h172c6.2,0,14.4-0.7,19,1c-1.9,5.2,0.8,13.7-1,20h-1c-0.3,11.3-0.7,22.7-1,34h-35v-7h1
		c1.7-6-0.8-14.1,1-19h-122c-1.6,4.3-1,12.1-1,18h-1v8h-34C10.4,120.4,12.9,102.6,13.5,84.6z"/>
	
		<linearGradient id="SVGID_10_" gradientUnits="userSpaceOnUse" x1="-13.2357" y1="31.9026" x2="435.2419" y2="33.4025" gradientTransform="matrix(1 0 0 -1 0 178)">
		<stop  offset="0" style="stop-color:#4EBBF2"/>
		<stop  offset="1" style="stop-color:#20B0FA"/>
	</linearGradient>
	<path class="st9" d="M159.5,144.6v2c1-0.3,2-0.7,3-1v2c0.7-0.3,1.3-0.7,2-1c0.3,0.7,0.7,1.3,1,2h2v1c0.7-0.3,1.3-0.7,2-1
		c0.9,0.4,0.4,1.9,2,2c0.5-0.4-0.3-1.6,1-1c0.3,0.7,0.7,1.3,1,2c0.7-0.3,1.3-0.7,2-1c0.3,0.7,0.7,1.3,1,2h1v-1h22c0.8,2.2,1,5.4,1,9
		c-2,2.2-1.1,10.1-1,14h-51v-1h-2v-1h-3v-1h-2v-1h-3v-1h-3v-1c-1.3-0.3-2.7-0.7-4-1v-1h-2v-1h-3v-1h-2v-1c-1.7-0.3-3.3-0.7-5-1v-1
		h-3v-1h-2v-1c-2.9-1.3-4.9-1.1-8-2v-1c-3.7,1-7.3,2-11,3v1h-2v1h-3v1h-3v1h-3v1h-3v1h-2v1h-4v1c-2,0.3-4,0.7-6,1v1h-2v1h-3v1h-3v1
		h-3v1h-3v1h-47c0.3-7.7,0.7-15.3,1-23h21c2.1,2.4,0.3-0.9,3-1v1h1v-1c1.7-1,0.9-1,2,0h1c0.3-0.7,0.7-1.3,1-2c0.7,0.3,1.3,0.7,2,1
		v-1h2c0.9-0.5,0.3-1.9,2-2v1c1-0.7,2-1.3,3-2v1h1c0.3-0.7,0.7-1.3,1-2c0.7,0.3,1.3,0.7,2,1c0.3-0.7,0.7-1.3,1-2h2v-1h3v-1h3v-1h3
		v-1h3v-1c3.3-1,6.7-2,10-3v1c1.7-1,3.3-2,5-3v1c0.8-0.3,2-2,2-2c0.7,0.3,1.3,0.7,2,1c0.3-0.7,0.7-1.3,1-2c0.7,0.3,1.3,0.7,2,1v-5h1
		c1.7-3-1-7.7,1-10c1.7-1.5,5.8-1,9-1h24c0.8,1.1-0.1,0.1,1,1c-1.5,3.8-1.4,12.2,0,16h1v-1c1.7,0.2,1.1,1.4,2,2c0.7-0.3,1.3-0.7,2-1
		v1h2v1h3v1h3v1h3v1h3v1h2v1h3C151.9,142,155,144,159.5,144.6z"/>
</g>
</svg>
