<?xml version="1.0" encoding="utf-8"?>
<!-- Generator: Adobe Illustrator 19.2.1, SVG Export Plug-In . SVG Version: 6.00 Build 0)  -->
<svg version="1.1" id="图层_1" xmlns="http://www.w3.org/2000/svg" xmlns:xlink="http://www.w3.org/1999/xlink" x="0px" y="0px"
	 viewBox="0 0 116.1 84.3" style="enable-background:new 0 0 116.1 84.3;" xml:space="preserve">
<style type="text/css">
	.st0{display:none;}
	.st1{display:inline;fill-rule:evenodd;clip-rule:evenodd;}
	.st2{display:inline;fill-rule:evenodd;clip-rule:evenodd;fill:#FFFFFF;}
	
		.st3{fill-rule:evenodd;clip-rule:evenodd;fill:none;stroke:#C5CDD0;stroke-width:3;stroke-linecap:round;stroke-linejoin:round;stroke-miterlimit:10;}
	
		.st4{fill-rule:evenodd;clip-rule:evenodd;fill:none;stroke:#A02324;stroke-width:5;stroke-linecap:round;stroke-linejoin:round;stroke-miterlimit:10;}
	
		.st5{fill-rule:evenodd;clip-rule:evenodd;fill:#FFFFFF;stroke:#C5CDD0;stroke-width:3;stroke-linecap:round;stroke-linejoin:round;stroke-miterlimit:10;}
	
		.st6{fill-rule:evenodd;clip-rule:evenodd;fill:none;stroke:#D0D7DA;stroke-width:3;stroke-linecap:round;stroke-linejoin:round;stroke-miterlimit:10;}
	.st7{fill-rule:evenodd;clip-rule:evenodd;fill:#E1E5E7;}
	.st8{fill:#E1E5E7;}
	.st9{fill:#E1E5E7;stroke:#C5CDD0;stroke-linecap:round;stroke-miterlimit:10;}
	.st10{fill:none;stroke:#C5CDD0;stroke-linecap:round;stroke-miterlimit:10;}
</style>
<g class="st0">
	<path class="st1" d="M18,49.5c-0.9,0-1.7-0.3-2.3-1c-1.3-1.3-1.3-3.5,0-4.7L49.4,10c0.1-0.1,0.2-0.2,0.3-0.2
		c2.7-2.1,9.3-4.7,15.3,0c0.1,0.1,0.2,0.1,0.3,0.2l34.2,33.7c1.3,1.3,1.3,3.5,0,4.7c-1.3,1.3-4.5,0.3-5.7-1L60.6,14.9
		c-3-2.2-6-0.4-6.8,0L20.3,48.5C19.6,49.1,18.7,49.5,18,49.5L18,49.5L18,49.5z"/>
	<path class="st1" d="M80.3,86.1H34.6c-3-0.1-7.5-2.5-7.5-7.9V48.9c0-1.9,1.5-3.3,3.3-3.3c1.9,0,3.3,1.5,3.3,3.3v29.2
		c0,0.4,0,1.1,1.1,1.2h45.4c0.8-0.1,0.9-0.7,1-1.3V49c0-1.9,1.5-3.3,3.3-3.3c1.9,0,3.3,1.5,3.3,3.3v29.3
		C87.7,84.1,83.2,86.1,80.3,86.1L80.3,86.1L80.3,86.1z"/>
</g>
<g id="图层_2" class="st0">
	<path class="st2" d="M90.6,59.5V11.3c0-2.8-2.3-5-5-5H34.7c-2.8,0-5,2.3-5,5v62.3c0,2.8,2.3,5,5,5h36.7L90.6,59.5z"/>
</g>
<path class="st3" d="M91.1,17v-6.7c0-2.7-2.3-5-5-5H33.8c-2.8,0-5,2.3-5,5v64.3c0,2.8,2.3,5,5,5h36.7l20.5-21H76.1
	c-2.6,0-4.8,2.1-4.8,4.8v15.2"/>
<path class="st4" d="M91.1,17"/>
<path class="st4" d="M91.1,25.3"/>
<line class="st5" x1="91" y1="58.8" x2="91" y2="25.4"/>
<path class="st6" d="M41.5,20.3"/>
<line class="st3" x1="69.8" y1="25" x2="41.5" y2="25"/>
<line class="st3" x1="77.8" y1="36.7" x2="41.5" y2="36.7"/>
<g>
	<line class="st7" x1="99.5" y1="36.2" x2="105.4" y2="36.2"/>
	<path class="st8" d="M105.4,37.3h-6c-0.8,0-1.5-0.5-1.5-1.2s0.7-1.2,1.5-1.2h6c0.8,0,1.5,0.5,1.5,1.2S106.2,37.3,105.4,37.3z"/>
	<path class="st8" d="M102.4,39.8h-6c-0.8,0-1.5-0.5-1.5-1.2s0.7-1.2,1.5-1.3h6c0.8,0.2,1.5,0.7,1.5,1.3S103.3,39.8,102.4,39.8z"/>
</g>
<g>
	<line class="st7" x1="15" y1="61.7" x2="22.3" y2="61.7"/>
	<path class="st8" d="M22.3,63.2H15c-1,0-1.8-0.7-1.8-1.5s0.8-1.5,1.8-1.5h7.3c1,0,1.8,0.7,1.8,1.5S23.4,63.2,22.3,63.2z"/>
</g>
<path class="st8" d="M27.4,18.8H13.5c-1.3,0-2.4,0.9-2.4,2.1c0,1.1,0.9,1.9,2,2.1h4.5c1.3,0,2.4,0.8,2.4,1.9c0,0.7-0.5,1.4-1.3,1.7
	H9.9c-0.3,0-0.7,0.1-1,0.2H5.9c-1.3,0-2.4,0.9-2.4,2.1c0,1.2,1.1,2.1,2.4,2.1h9.3c0.8,0.3,1.3,0.9,1.3,1.7c0,1-1.1,1.9-2.4,1.9h-1.3
	H2.4c-1.3,0-2.4,0.9-2.4,2.1c0,1.2,1.1,2.1,2.4,2.1h25V18.8z"/>
<path class="st8" d="M111.5,53h-9.7h-1.2c-1.2,0-2.2-0.7-2.2-1.6c0-0.9,1-1.6,2.2-1.6h4.2c1.1-0.1,1.9-0.9,1.9-1.8
	c0-1-1-1.8-2.2-1.8H92.3h-3.2h3.5l-0.1,10.3h-0.8h19.8c1.2,0,2.2-0.8,2.2-1.8C113.6,53.8,112.7,53,111.5,53z"/>
<line class="st9" x1="105.6" y1="8.2" x2="104.7" y2="9.6"/>
<line class="st9" x1="103.2" y1="11.9" x2="102.3" y2="13.3"/>
<path class="st9" d="M102.9,12.5"/>
<line class="st9" x1="101.4" y1="9.2" x2="102.8" y2="10.1"/>
<line class="st9" x1="105.1" y1="11.5" x2="106.5" y2="12.4"/>
<path class="st9" d="M105.4,11.8"/>
<circle class="st10" cx="15.3" cy="73.4" r="2.1"/>
<line class="st10" x1="7.1" y1="53.3" x2="9.8" y2="53.3"/>
<line class="st10" x1="8.4" y1="54.7" x2="8.4" y2="52"/>
</svg>
